<svg width="1920" height="87" viewBox="0 0 1920 87" fill="none" xmlns="http://www.w3.org/2000/svg">
<g clip-path="url(#clip0_2651_12293)">
<path d="M959.666 87.0001H-5027V-148.003H-5024.41L-3056.93 -87.1324H-3054.49L-1092.2 -26.2617L-1089.76 -26.1103L873.905 34.7604C895.116 35.5175 915.412 44.1484 930.672 58.8361L957.835 85.0317L957.988 85.1831L959.666 87.0001Z" fill="white"/>
<path d="M6946.33 -148.003V87.0001H959.668L961.346 85.3345L962.262 84.2746L961.346 85.3345L988.662 58.8361C991.561 56.1105 994.613 53.5364 997.665 51.2651C999.802 49.7509 1001.94 48.2367 1004.23 46.8739C1008.65 44.1484 1013.38 41.8771 1018.42 40.0601C1022.08 38.6973 1025.9 37.4859 1029.71 36.7288C1034.9 35.5175 1040.09 34.9118 1045.43 34.7604L3009.09 -26.1103L3011.53 -26.2617L4973.82 -87.1324H4976.26L6943.89 -148.003H6946.33Z" fill="white"/>
<path d="M6946.33 -153V-148.003H6943.89L4976.41 -87.1325H4973.97L3011.68 -26.2618L3009.24 -26.1104L1045.58 34.7602C1040.24 34.9117 1035.05 35.6688 1029.86 36.7287C1026.05 37.6372 1022.23 38.6972 1018.57 40.0599C1013.69 41.877 1008.96 44.1483 1004.38 46.8738C1002.09 48.2366 999.953 49.7508 997.816 51.265C994.612 53.5363 991.56 56.1104 988.813 58.8359L961.497 85.3344L962.413 84.2744L961.497 85.3344L959.819 87L957.988 85.3344L957.835 85.183L930.672 58.9874C915.412 44.2997 895.116 35.6688 873.905 34.9117L-1089.76 -26.1104L-1092.2 -26.2618L-3054.49 -87.1325H-3056.93L-5024.41 -148.003H-5027V-153L-3054.33 -91.6751L-1092.2 -31.1073L874.057 29.9148C896.642 30.8233 918.006 39.9085 934.182 55.5047L959.666 80.1861L985.15 55.5047C992.17 48.6908 1000.26 43.0883 1009.11 38.8486C1017.81 34.6088 1027.27 31.8833 1037.03 30.5205C1039.78 30.2177 1042.68 29.9148 1045.43 29.7634L3011.68 -31.2587L4973.82 -91.8265L6946.33 -153Z" fill="#1464F4"/>
</g>
<defs>
<clipPath id="clip0_2651_12293">
<rect width="1920" height="87" fill="white"/>
</clipPath>
</defs>
</svg>
